<svg width="26" height="26" viewBox="0 0 26 26" fill="none" xmlns="http://www.w3.org/2000/svg">
<g id="iconoir:star-solid">
<path id="Vector" d="M9.30256 8.92234L12.1171 3.25434C12.199 3.09031 12.325 2.95234 12.4809 2.85591C12.6369 2.75948 12.8166 2.7084 13 2.7084C13.1833 2.7084 13.3631 2.75948 13.519 2.85591C13.675 2.95234 13.801 3.09031 13.8829 3.25434L16.6974 8.92234L22.9894 9.83667C23.1709 9.86184 23.3416 9.93752 23.4822 10.0551C23.6227 10.1726 23.7273 10.3274 23.7842 10.5015C23.841 10.6757 23.8477 10.8624 23.8035 11.0402C23.7593 11.218 23.666 11.3798 23.5343 11.5072L18.9821 15.9163L20.0568 22.1455C20.1944 22.945 19.3494 23.5538 18.6268 23.1768L13 20.2345L7.37206 23.1768C6.65056 23.5549 5.80556 22.945 5.94314 22.1444L7.01781 15.9153L2.46564 11.5061C2.33454 11.3787 2.24182 11.217 2.19802 11.0395C2.15421 10.862 2.16108 10.6758 2.21785 10.502C2.27461 10.3282 2.37899 10.1738 2.51912 10.0564C2.65925 9.93899 2.82952 9.86323 3.01056 9.83776L9.30256 8.92234Z" stroke-width="1.125" stroke-linecap="round" stroke-linejoin="round"/>
</g>
</svg>
